<svg width="50" height="52" viewBox="0 0 50 52" fill="none" xmlns="http://www.w3.org/2000/svg">
<g filter="url(#filter0_d_10_114)">
<rect width="50" height="50" rx="25" fill="#EFF3F5" shape-rendering="crispEdges"/>
<ellipse cx="41.3311" cy="12.4171" rx="4.13882" ry="6.43382" transform="rotate(-46.9291 41.3311 12.4171)" fill="#0A0F13"/>
<path d="M26.0923 15.2562C27.3947 13.8634 29.6977 13.7154 32.1284 14.6342L29.7993 16.559C28.537 17.9093 29.2149 20.5947 31.314 22.557C33.4131 24.5193 36.1386 25.0147 37.4009 23.6644L39.4527 21.4955C40.5222 23.8508 40.5261 26.148 39.2281 27.5365C37.1503 29.7591 32.5253 28.8112 28.898 25.4203C25.2707 22.0294 24.0146 17.4788 26.0923 15.2562Z" fill="#0A0F13"/>
<path d="M32.275 21.6601C33.9521 23.2279 36.0905 23.6658 37.0512 22.6382C37.706 21.7269 39.3156 19.5045 40.5156 17.9045C37.7156 16.3045 36.0156 14.2378 35.5156 13.4045L30.9777 16.9605C30.0171 17.9882 30.5979 20.0922 32.275 21.6601Z" fill="#0A0F13"/>
<path d="M28.5156 26.9045C28.0156 26.5711 26.9156 25.7045 26.5156 24.9045L23.5156 28.4045L22.9824 29.2043C22.3907 30.0919 23.4142 31.1653 24.329 30.6165L25.5156 29.9045L28.5156 26.9045Z" fill="#0A0F13"/>
</g>
<defs>
<filter id="filter0_d_10_114" x="0" y="0" width="50" height="52" filterUnits="userSpaceOnUse" color-interpolation-filters="sRGB">
<feFlood flood-opacity="0" result="BackgroundImageFix"/>
<feColorMatrix in="SourceAlpha" type="matrix" values="0 0 0 0 0 0 0 0 0 0 0 0 0 0 0 0 0 0 127 0" result="hardAlpha"/>
<feOffset dy="2"/>
<feComposite in2="hardAlpha" operator="out"/>
<feColorMatrix type="matrix" values="0 0 0 0 0.882353 0 0 0 0 0.894118 0 0 0 0 0.901961 0 0 0 1 0"/>
<feBlend mode="normal" in2="BackgroundImageFix" result="effect1_dropShadow_10_114"/>
<feBlend mode="normal" in="SourceGraphic" in2="effect1_dropShadow_10_114" result="shape"/>
</filter>
</defs>
</svg>
